# WaveFront *.obj file (generated by Autodesk ATF)

mtllib Pipeclamp lock.mtl

g Body1

v -0.235000 0.195000 -1.710000
v 0.265000 0.195000 -1.910000
v 0.265000 -0.195000 -1.910000
v -0.235000 -0.195000 -1.710000
v 0.075000 0.195000 -1.710000
v 0.075000 0.195000 0.000000
v 0.075000 0.195000 0.250000
v 0.265000 0.195000 0.250000
v 0.075000 -0.195000 -1.710000
v 0.075000 -0.195000 0.000000
v 0.075000 -0.660000 0.000000
v 0.075000 -0.195000 0.250000
v 0.075000 -0.660000 0.250000
v -0.075000 -0.660000 0.000000
v -0.075000 -0.660000 0.250000
v -0.075000 0.660000 0.000000
v -0.075000 0.660000 0.250000
v 0.075000 0.660000 0.000000
v 0.075000 0.660000 0.250000
v 0.265000 -0.195000 0.250000
vt -0.000000 0.390000 0.000000
vt -0.538516 0.390000 0.000000
vt 0.000000 0.000000 0.000000
vt -0.538516 -0.000000 0.000000
vt 0.500000 -1.710000 0.000000
vt 0.190000 -1.710000 0.000000
vt 0.000000 -1.910000 0.000000
vt 0.190000 0.000000 0.000000
vt 0.000000 0.250000 0.000000
vt 0.190000 0.250000 0.000000
vt -0.060000 -0.195000 0.000000
vt 0.250000 -0.195000 0.000000
vt -0.060000 0.195000 0.000000
vt 0.250000 0.195000 0.000000
vt -0.000000 0.000000 0.000000
vt 0.390000 0.000000 0.000000
vt 0.000000 1.710000 0.000000
vt 0.390000 1.710000 0.000000
vt 0.000000 0.000000 0.000000
vt 0.465000 0.000000 0.000000
vt -0.000000 0.250000 0.000000
vt 0.465000 0.250000 0.000000
vt 0.000000 0.000000 0.000000
vt 0.150000 0.000000 0.000000
vt 0.000000 0.250000 0.000000
vt 0.150000 0.250000 0.000000
vt 0.000000 0.000000 0.000000
vt 1.320000 0.000000 0.000000
vt 0.000000 0.250000 0.000000
vt 1.320000 0.250000 0.000000
vt -0.000000 0.000000 0.000000
vt 0.150000 0.000000 0.000000
vt -0.000000 0.250000 0.000000
vt 0.150000 0.250000 0.000000
vt 0.000000 0.000000 0.000000
vt 0.465000 0.000000 0.000000
vt 0.000000 0.250000 0.000000
vt 0.465000 0.250000 0.000000
vt 0.390000 0.250000 0.000000
vt 0.000000 0.250000 0.000000
vt 0.390000 -1.910000 0.000000
vt 0.000000 -1.910000 0.000000
vt -0.310000 -1.710000 0.000000
vt 0.190000 -1.910000 0.000000
vt -0.000000 -1.710000 0.000000
vt 0.000000 0.000000 0.000000
vt 0.190000 0.250000 0.000000
vt 0.000000 0.250000 0.000000
vt 0.170000 -0.195000 0.000000
vt -0.020000 0.195000 0.000000
vt -0.020000 -0.195000 0.000000
vt -0.170000 -0.660000 0.000000
vt -0.020000 -0.660000 0.000000
vt 0.170000 0.195000 0.000000
vt -0.020000 0.660000 0.000000
vt -0.170000 0.660000 0.000000
vt 0.020000 -0.195000 0.000000
vt 0.170000 -0.660000 0.000000
vt 0.020000 0.195000 0.000000
vt 0.170000 0.660000 0.000000
vt 0.020000 0.660000 0.000000
vt 0.020000 -0.660000 0.000000
vn -0.371391 -0.000000 -0.928477
vn -0.371391 -0.000000 -0.928477
vn -0.371391 -0.000000 -0.928477
vn -0.371391 -0.000000 -0.928477
vn 0.000000 1.000000 -0.000000
vn 0.000000 1.000000 -0.000000
vn 0.000000 1.000000 -0.000000
vn 0.000000 1.000000 -0.000000
vn 0.000000 1.000000 -0.000000
vn 0.000000 1.000000 -0.000000
vn -0.000000 -0.000000 1.000000
vn -0.000000 -0.000000 1.000000
vn -0.000000 -0.000000 1.000000
vn -0.000000 -0.000000 1.000000
vn -1.000000 0.000000 0.000000
vn -1.000000 0.000000 0.000000
vn -1.000000 0.000000 0.000000
vn -1.000000 0.000000 0.000000
vn 1.000000 0.000000 -0.000000
vn 1.000000 0.000000 -0.000000
vn 1.000000 0.000000 -0.000000
vn 1.000000 0.000000 -0.000000
vn -0.000000 -1.000000 0.000000
vn -0.000000 -1.000000 0.000000
vn -0.000000 -1.000000 0.000000
vn -0.000000 -1.000000 0.000000
vn -1.000000 -0.000000 0.000000
vn -1.000000 -0.000000 0.000000
vn -1.000000 -0.000000 0.000000
vn -1.000000 -0.000000 0.000000
vn 0.000000 1.000000 0.000000
vn 0.000000 1.000000 0.000000
vn 0.000000 1.000000 0.000000
vn 0.000000 1.000000 0.000000
vn 1.000000 0.000000 -0.000000
vn 1.000000 0.000000 -0.000000
vn 1.000000 0.000000 -0.000000
vn 1.000000 0.000000 -0.000000
vn 1.000000 0.000000 -0.000000
vn 1.000000 0.000000 -0.000000
vn 1.000000 0.000000 -0.000000
vn 1.000000 0.000000 -0.000000
vn 0.000000 -1.000000 0.000000
vn 0.000000 -1.000000 0.000000
vn 0.000000 -1.000000 0.000000
vn 0.000000 -1.000000 0.000000
vn 0.000000 -1.000000 0.000000
vn 0.000000 -1.000000 0.000000
vn 0.000000 0.000000 1.000000
vn 0.000000 0.000000 1.000000
vn 0.000000 0.000000 1.000000
vn 0.000000 0.000000 1.000000
vn 0.000000 0.000000 1.000000
vn 0.000000 0.000000 1.000000
vn 0.000000 0.000000 1.000000
vn 0.000000 0.000000 1.000000
vn -0.000000 0.000000 -1.000000
vn -0.000000 0.000000 -1.000000
vn -0.000000 0.000000 -1.000000
vn -0.000000 0.000000 -1.000000
vn -0.000000 0.000000 -1.000000
vn -0.000000 0.000000 -1.000000
usemtl Steel_-_Satin
f 1/1/1 2/2/2 4/3/3
f 4/3/3 2/2/2 3/4/4
f 1/5/5 5/6/6 2/7/7
f 2/7/7 5/6/6 6/8/8
f 2/7/7 6/8/8 8/9/9
f 8/9/9 6/8/8 7/10/10
f 5/11/11 1/12/12 9/13/13
f 9/13/13 1/12/12 4/14/14
f 10/15/15 6/16/16 9/17/17
f 9/17/17 6/16/16 5/18/18
f 11/19/19 10/20/20 13/21/21
f 13/21/21 10/20/20 12/22/22
f 14/23/23 11/24/24 15/25/25
f 15/25/25 11/24/24 13/26/26
f 16/27/27 14/28/28 17/29/29
f 17/29/29 14/28/28 15/30/30
f 18/31/31 16/32/32 19/33/33
f 19/33/33 16/32/32 17/34/34
f 6/35/35 18/36/36 7/37/37
f 7/37/37 18/36/36 19/38/38
f 8/39/39 20/40/40 2/41/41
f 2/41/41 20/40/40 3/42/42
f 4/43/43 3/44/44 9/45/45
f 9/45/45 3/44/44 10/46/46
f 10/46/46 3/44/44 20/47/47
f 10/46/46 20/47/47 12/48/48
f 20/49/49 7/50/50 12/51/51
f 12/51/51 7/50/50 15/52/52
f 12/51/51 15/52/52 13/53/53
f 20/49/49 8/54/54 7/50/50
f 19/55/55 17/56/56 7/50/50
f 7/50/50 17/56/56 15/52/52
f 10/57/57 14/58/58 6/59/59
f 6/59/59 14/58/58 16/60/60
f 6/59/59 16/60/60 18/61/61
f 10/57/57 11/62/62 14/58/58
# 20 vertices
# 62 texture params
# 62 normals
# 36 facets

# 1 groups
